<svg xmlns="http://www.w3.org/2000/svg" viewBox="0 0 367.02 40">
  <g fill="#ffffff">
    <path d="M1.11,1.19h12.98c11.09,0,20.94,4.33,20.94,18.51-.05,14.42-9.3,18.6-20.45,18.6H1.11V1.19ZM14.04,26.51h1.39c3.78,0,6.67-1.99,6.67-6.81s-2.88-6.67-6.67-6.72h-1.39v13.53Z"/>
    <path d="M38.82,1.19h12.93v37.11h-12.93V1.19Z"/>
    <path d="M76.37,39.5c-11.84,0-21.29-8.85-21.29-19.8S64.53,0,76.37,0c5.17,0,10.15,1.84,13.58,4.28l-7.31,10c-1.14-1.14-3.73-2.39-6.27-2.39-4.68,0-8.36,3.33-8.36,7.91s3.68,7.81,8.31,7.81c1.69,0,3.18-.89,4.28-2.34h-4.88l3.23-9.2h16.22v2.89c0,12.14-8.36,20.54-18.8,20.54Z"/>
    <path d="M98.41,1.19h12.93v37.11h-12.93V1.19Z"/>
    <path d="M119.45,12.88h-5.02V1.19h22.98v11.69h-5.02v25.42h-12.93V12.88Z"/>
    <path d="M157.6,34.47h-11.89l-1.29,3.83h-13.38L145.61,1.19h12.63l14.62,37.11h-14.03l-1.24-3.83ZM154.67,25.27l-2.88-8.9-2.98,8.9h5.87Z"/>
    <path d="M188.49,1.19v25.42h11.99v11.69h-24.92V1.19h12.93Z"/>
  </g>
</svg>